<?xml version="1.0" encoding="UTF-8"?>
<svg width="18px" height="17px" viewBox="0 0 18 17" version="1.1" xmlns="http://www.w3.org/2000/svg" xmlns:xlink="http://www.w3.org/1999/xlink">
    <!-- Generator: Sketch 52.4 (67378) - http://www.bohemiancoding.com/sketch -->
    <title>if_Paper_Clip_279584 (1)</title>
    <desc>Created with Sketch.</desc>
    <g id="Updates---Nov-6" stroke="none" stroke-width="1" fill="none" fill-rule="evenodd">
        <g id="Step-1---Create-Invoices" transform="translate(-206.000000, -622.000000)" fill="#057B3F" fill-rule="nonzero">
            <g id="Group-4" transform="translate(191.000000, 612.000000)">
                <g id="if_Paper_Clip_279584-(1)" transform="translate(15.000000, 10.900000)">
                    <path d="M16.9733333,1.01247668 C15.6738333,-0.280124352 13.5590833,-0.280621762 12.2595,1.01264249 L4.71683333,8.51606218 C4.33925,8.89168912 4.13125,9.39141969 4.13125,9.92298446 C4.13125,10.4545492 4.33925,10.954114 4.71683333,11.3297409 C5.09458333,11.7055337 5.59691667,11.9126218 6.13125,11.9126218 C6.66541667,11.9126218 7.16775,11.7056995 7.54566667,11.3297409 L13.3200833,5.58491192 C13.5805,5.32601036 13.5805,4.90603109 13.3200833,4.64712953 C13.0596667,4.38806218 12.6376667,4.38806218 12.3774167,4.64712953 L6.6025,10.3918756 C6.35058333,10.6423212 5.91175,10.6428187 5.65966667,10.3917098 C5.53383333,10.2665285 5.4645,10.1000622 5.4645,9.92298446 C5.4645,9.74590674 5.53383333,9.57927461 5.65983333,9.45392746 L13.2021667,1.95050777 C13.9820833,1.17504663 15.2508333,1.17496373 16.0305833,1.95067358 C16.4083333,2.32630052 16.6165,2.82603109 16.6165,3.35743005 C16.6165,3.88882902 16.4085,4.38855959 16.0305833,4.76435233 L7.07408333,13.6746943 C6.44433333,14.3010155 5.60725,14.645886 4.71683333,14.645886 C3.8265,14.645886 2.98958333,14.3008497 2.35991667,13.6745285 C1.73033333,13.0482073 1.38366667,12.2154611 1.38366667,11.3298238 C1.38366667,10.4439378 1.7305,9.61127461 2.36008333,8.98495337 L9.43108333,1.95042487 C9.6915,1.69152332 9.6915,1.27154404 9.43108333,1.01264249 C9.17066667,0.75357513 8.74875,0.75357513 8.48841667,1.01264249 L1.41716667,8.04717098 C0.536,8.92393782 0.0505,10.0897824 0.0505,11.3297409 C0.0503333333,12.5698653 0.535833333,13.7356269 1.41716667,14.6124767 C2.29866667,15.4894093 3.47058333,15.972228 4.717,15.9723938 L4.71716667,15.9723938 C5.96358333,15.9723938 7.13558333,15.4894093 8.01716667,14.6126425 L16.9738333,5.70221762 C17.6034167,5.07589637 17.9500833,4.24315026 17.9500833,3.35751295 C17.9496667,2.47146114 17.6028333,1.63879793 16.9733333,1.01247668 Z" id="Shape"></path>
                </g>
            </g>
        </g>
    </g>
</svg>