<?xml version="1.0" encoding="UTF-8"?>
<svg xmlns="http://www.w3.org/2000/svg" xmlns:xlink="http://www.w3.org/1999/xlink" width="48pt" height="48pt" viewBox="0 0 48 48" version="1.1">
<g id="surface4420758">
<path style="fill-rule:nonzero;fill:rgb(78.431373%,90.196078%,78.823529%);fill-opacity:1;stroke-width:10;stroke-linecap:butt;stroke-linejoin:round;stroke:rgb(80%,80%,80%);stroke-opacity:1;stroke-miterlimit:10;" d="M 169.503232 197.745229 L 56.496768 197.745229 C 40.894411 197.745229 28.254771 185.105589 28.254771 169.503232 L 28.254771 56.496768 C 28.254771 40.894411 40.894411 28.254771 56.496768 28.254771 L 169.503232 28.254771 C 185.105589 28.254771 197.745229 40.894411 197.745229 56.496768 L 197.745229 169.503232 C 197.745229 185.105589 185.105589 197.745229 169.503232 197.745229 Z M 169.503232 197.745229 " transform="matrix(0.203044,0,0,0.203044,1.056,1.056)"/>
<path style="fill-rule:nonzero;fill:rgb(29.803922%,68.627451%,31.372549%);fill-opacity:1;stroke-width:10;stroke-linecap:butt;stroke-linejoin:round;stroke:rgb(80%,80%,80%);stroke-opacity:1;stroke-miterlimit:10;" d="M 176.159724 81.987671 L 98.955955 159.268394 L 59.2671 119.675731 L 72.560847 106.324269 L 98.936717 132.642424 L 162.84674 68.674686 Z M 176.159724 81.987671 " transform="matrix(0.203044,0,0,0.203044,1.056,1.056)"/>
<path style=" stroke:none;fill-rule:nonzero;fill:rgb(100%,100%,100%);fill-opacity:1;" d="M 35.472656 41.207031 L 12.527344 41.207031 C 9.359375 41.207031 6.792969 38.640625 6.792969 35.472656 L 6.792969 12.527344 C 6.792969 9.359375 9.359375 6.792969 12.527344 6.792969 L 35.472656 6.792969 C 38.640625 6.792969 41.207031 9.359375 41.207031 12.527344 L 41.207031 35.472656 C 41.207031 38.640625 38.640625 41.207031 35.472656 41.207031 Z M 35.472656 41.207031 "/>
<path style=" stroke:none;fill-rule:nonzero;fill:rgb(29.803922%,68.627451%,31.372549%);fill-opacity:1;" d="M 34.121094 15 L 21.144531 27.988281 L 15.789062 22.644531 L 13.089844 25.355469 L 21.148438 33.394531 L 36.824219 17.703125 Z M 34.121094 15 "/>
</g>
</svg>
