<?xml version="1.0" encoding="UTF-8"?>
<svg xmlns="http://www.w3.org/2000/svg" xmlns:xlink="http://www.w3.org/1999/xlink" width="17pt" height="17pt" viewBox="0 0 17 17" version="1.1">
<g id="surface1">
<path style=" stroke:none;fill-rule:nonzero;fill:rgb(58.823529%,60%,63.529412%);fill-opacity:1;" d="M 14.558594 3.871094 C 13.570312 3.015625 11.964844 3.015625 10.976562 3.871094 L 5.246094 8.835938 C 4.957031 9.085938 4.800781 9.414062 4.800781 9.765625 C 4.800781 10.117188 4.957031 10.449219 5.246094 10.699219 C 5.53125 10.945312 5.914062 11.082031 6.320312 11.082031 C 6.726562 11.082031 7.109375 10.945312 7.394531 10.699219 L 11.78125 6.898438 C 11.980469 6.726562 11.980469 6.449219 11.78125 6.277344 C 11.585938 6.105469 11.261719 6.105469 11.066406 6.277344 L 6.679688 10.078125 C 6.488281 10.242188 6.152344 10.242188 5.960938 10.078125 C 5.867188 9.996094 5.8125 9.882812 5.8125 9.765625 C 5.8125 9.648438 5.867188 9.539062 5.960938 9.457031 L 11.691406 4.492188 C 12.285156 3.980469 13.25 3.980469 13.839844 4.492188 C 14.128906 4.742188 14.285156 5.070312 14.285156 5.421875 C 14.285156 5.773438 14.128906 6.105469 13.839844 6.355469 L 7.035156 12.25 C 6.558594 12.664062 5.921875 12.890625 5.246094 12.890625 C 4.570312 12.890625 3.933594 12.664062 3.453125 12.25 C 2.976562 11.835938 2.714844 11.285156 2.714844 10.699219 C 2.714844 10.113281 2.976562 9.5625 3.453125 9.148438 L 8.828125 4.492188 C 9.023438 4.320312 9.023438 4.042969 8.828125 3.871094 C 8.628906 3.699219 8.308594 3.699219 8.109375 3.871094 L 2.738281 8.527344 C 2.070312 9.105469 1.699219 9.878906 1.699219 10.699219 C 1.699219 11.519531 2.070312 12.289062 2.738281 12.871094 C 3.40625 13.449219 4.296875 13.769531 5.246094 13.769531 C 6.191406 13.769531 7.082031 13.449219 7.753906 12.871094 L 14.558594 6.972656 C 15.035156 6.558594 15.300781 6.007812 15.300781 5.421875 C 15.300781 4.835938 15.035156 4.285156 14.558594 3.871094 Z M 14.558594 3.871094 "/>
</g>
</svg>
