<?xml version="1.0" encoding="UTF-8"?>
<svg width="13px" height="11px" viewBox="0 0 13 11" version="1.1" xmlns="http://www.w3.org/2000/svg" xmlns:xlink="http://www.w3.org/1999/xlink">
    <!-- Generator: Sketch 52.2 (67145) - http://www.bohemiancoding.com/sketch -->
    <title>if_Paper_Clip_279584 (1) Copy</title>
    <desc>Created with Sketch.</desc>
    <g id="Page-1" stroke="none" stroke-width="1" fill="none" fill-rule="evenodd">
        <g id="if_Paper_Clip_279584-(1)-Copy" fill="#3F4046" fill-rule="nonzero">
            <path d="M12.2585185,0.69607772 C11.3199907,-0.192585492 9.7926713,-0.192927461 8.85408333,0.69619171 L3.40660185,5.85479275 C3.13390278,6.11303627 2.98368056,6.45660104 2.98368056,6.82205181 C2.98368056,7.18750259 3.13390278,7.53095337 3.40660185,7.78919689 C3.6794213,8.0475544 4.04221759,8.18992746 4.428125,8.18992746 C4.81391204,8.18992746 5.17670833,8.04766839 5.44964815,7.78919689 L9.62006019,3.83962694 C9.80813889,3.66163212 9.80813889,3.37289637 9.62006019,3.19490155 C9.43198148,3.01679275 9.1272037,3.01679275 8.93924537,3.19490155 L4.76847222,7.14441451 C4.58653241,7.31659585 4.26959722,7.31693782 4.08753704,7.14430052 C3.99665741,7.05823834 3.94658333,6.94379275 3.94658333,6.82205181 C3.94658333,6.70031088 3.99665741,6.5857513 4.08765741,6.49957513 L9.53489815,1.34097409 C10.0981713,0.80784456 11.0144907,0.807787565 11.5776435,1.34108808 C11.850463,1.59933161 12.0008056,1.94289637 12.0008056,2.30823316 C12.0008056,2.67356995 11.8505833,3.01713472 11.5776435,3.27549223 L5.10906019,9.40135233 C4.65424074,9.83194819 4.04968056,10.0690466 3.40660185,10.0690466 C2.76358333,10.0690466 2.15914352,9.8318342 1.70438426,9.40123834 C1.24968519,8.97064249 0.999314815,8.39812953 0.999314815,7.78925389 C0.999314815,7.18020725 1.24980556,6.6077513 1.70450463,6.17715544 L6.81133796,1.3409171 C6.99941667,1.16292228 6.99941667,0.874186528 6.81133796,0.69619171 C6.62325926,0.518082902 6.31854167,0.518082902 6.13052315,0.69619171 L1.02350926,5.53243005 C0.387111111,6.13520725 0.0364722222,6.93672539 0.0364722222,7.78919689 C0.0363518519,8.64178238 0.386990741,9.44324352 1.02350926,10.0460777 C1.66014815,10.6489689 2.50653241,10.9809067 3.40672222,10.9810207 L3.40684259,10.9810207 C4.30703241,10.9810207 5.15347685,10.6489689 5.79017593,10.0461917 L12.2588796,3.92027461 C12.7135787,3.48967876 12.9639491,2.9171658 12.9639491,2.30829016 C12.9636481,1.69912953 12.7131574,1.12667358 12.2585185,0.69607772 Z" id="Shape"></path>
        </g>
    </g>
</svg>