<?xml version="1.0" encoding="UTF-8"?>
<svg width="14px" height="17px" viewBox="0 0 14 17" version="1.1" xmlns="http://www.w3.org/2000/svg" xmlns:xlink="http://www.w3.org/1999/xlink">
    <!-- Generator: Sketch 52.4 (67378) - http://www.bohemiancoding.com/sketch -->
    <title>if_010_trash_409117 (1)</title>
    <desc>Created with Sketch.</desc>
    <g id="Updates---Nov-6" stroke="none" stroke-width="1" fill="none" fill-rule="evenodd">
        <g id="Step-1---Create-Invoices-Copy" transform="translate(-1066.000000, -592.000000)" fill="#D0021B">
            <g id="if_010_trash_409117-(1)" transform="translate(1066.000000, 592.000000)">
                <path d="M13.3384074,1.91202673 L9.83277778,1.91202673 L9.83277778,0.449155902 C9.83277778,0.211572383 9.64433333,0.0189309577 9.41192593,0.0189309577 L4.51474074,0.0189309577 C4.2822963,0.0189309577 4.09388889,0.211572383 4.09388889,0.449155902 L4.09388889,1.91202673 L0.66162963,1.91202673 C0.312962963,1.91202673 0.0303333333,2.200951 0.0303333333,2.55738307 C0.0303333333,2.91381514 0.312962963,3.20273942 0.66162963,3.20273942 L1.29062963,3.20273942 L1.29062963,16.3287082 C1.29062963,16.6851024 1.57325926,16.9741403 1.92192593,16.9741403 L12.007037,16.9741403 C12.3556667,16.9741403 12.6383333,16.6851024 12.6383333,16.3287082 L12.6383333,3.20273942 L13.3382963,3.20273942 C13.6869259,3.20273942 13.9695926,2.91377728 13.9695926,2.55738307 C13.9695926,2.20098886 13.687037,1.91202673 13.3384074,1.91202673 Z M4.93562963,0.879418708 L8.99096296,0.879418708 L8.99096296,1.91202673 L4.93562963,1.91202673 L4.93562963,0.879418708 Z M11.3757778,15.6833519 L2.55322222,15.6833519 L2.55322222,3.20273942 L11.3757778,3.20273942 L11.3757778,15.6833519 Z" id="Shape" fill-rule="nonzero"></path>
                <path d="M7,14.8077951 C6.76755556,14.8077951 6.57914815,14.6151537 6.57914815,14.3776459 L6.57914815,4.80937194 C6.57914815,4.57178842 6.76755556,4.37914699 7,4.37914699 C7.23240741,4.37914699 7.42085185,4.57178842 7.42085185,4.80937194 L7.42085185,14.3775323 C7.42085185,14.6151537 7.23240741,14.8077951 7,14.8077951 Z" id="Path"></path>
                <path d="M9.34577778,14.5110713 C9.11337037,14.5110713 8.92488889,14.318392 8.92488889,14.080922 L8.92488889,5.10609577 C8.92488889,4.86847439 9.11337037,4.67583296 9.34577778,4.67583296 C9.57818519,4.67583296 9.76662963,4.86843653 9.76662963,5.10609577 L9.76662963,14.0808463 C9.76662963,14.318392 9.57818519,14.5110713 9.34577778,14.5110713 Z" id="Path"></path>
                <path d="M4.58081481,14.5110713 C4.34837037,14.5110713 4.15992593,14.318392 4.15992593,14.080922 L4.15992593,5.10609577 C4.15992593,4.86847439 4.34837037,4.67583296 4.58081481,4.67583296 C4.81325926,4.67583296 5.00166667,4.86843653 5.00166667,5.10609577 L5.00166667,14.0808463 C5.00166667,14.318392 4.81325926,14.5110713 4.58081481,14.5110713 Z" id="Path"></path>
            </g>
        </g>
    </g>
</svg>