<?xml version="1.0" encoding="UTF-8"?>
<svg width="17px" height="17px" viewBox="0 0 17 17" version="1.1" xmlns="http://www.w3.org/2000/svg" xmlns:xlink="http://www.w3.org/1999/xlink">
    <!-- Generator: Sketch 52.4 (67378) - http://www.bohemiancoding.com/sketch -->
    <title>if_Untitled-1-03_397063</title>
    <desc>Created with Sketch.</desc>
    <g id="Updates---Nov-6" stroke="none" stroke-width="1" fill="none" fill-rule="evenodd">
        <g id="Step-1---Create-Invoices-Copy" transform="translate(-1066.000000, -560.000000)" fill="#333E48" fill-rule="nonzero">
            <g id="if_Untitled-1-03_397063" transform="translate(1066.000000, 560.000000)">
                <polyline id="Shape" points="9.31222222 1.92666667 3.04111111 8.19777778 6.17666667 11.3333333 12.4477778 5.06222222"></polyline>
                <path d="M2.00222222,9.25555556 L5.13777778,12.3911111 L1.87,13.3166667 C1.41666667,13.3733333 1.02,12.9955556 1.07666667,12.5233333 L2.00222222,9.25555556 Z" id="Shape"></path>
                <path d="M13.5055556,4.02333333 C14.5444444,2.98444444 14.3744444,1.75666667 13.5055556,0.887777778 C12.6366667,0.0188888889 11.4088889,-0.151111111 10.37,0.887777778 L13.5055556,4.02333333 Z" id="Shape"></path>
                <path d="M16.8111111,16.83 L0.188888889,16.83 C0.0755555556,16.83 0,16.7544444 0,16.6411111 L0,15.5455556 C0,15.4322222 0.0755555556,15.3566667 0.188888889,15.3566667 L16.8111111,15.3566667 C16.9244444,15.3566667 17,15.4322222 17,15.5455556 L17,16.6411111 C17,16.7544444 16.9244444,16.83 16.8111111,16.83 Z" id="Shape"></path>
            </g>
        </g>
    </g>
</svg>