<?xml version="1.0" encoding="UTF-8"?>
<svg xmlns="http://www.w3.org/2000/svg" xmlns:xlink="http://www.w3.org/1999/xlink" width="18pt" height="18pt" viewBox="0 0 18 18" version="1.1">
<g id="surface1">
<path style="fill:none;stroke-width:3;stroke-linecap:round;stroke-linejoin:miter;stroke:rgb(24.705882%,25.098039%,27.45098%);stroke-opacity:1;stroke-miterlimit:4;" d="M 44.99783 25 C 44.99783 13.953993 36.046007 5.00217 25 5.00217 C 13.953993 5.00217 5.00217 13.953993 5.00217 25 C 5.00217 36.046007 13.953993 44.99783 25 44.99783 C 36.046007 44.99783 44.99783 36.046007 44.99783 25 Z M 44.99783 25 " transform="matrix(0.36,0,0,0.36,0,0)"/>
<path style=" stroke:none;fill-rule:nonzero;fill:rgb(24.705882%,25.098039%,27.45098%);fill-opacity:1;" d="M 10.078125 5.039062 C 10.078125 5.636719 9.597656 6.121094 9 6.121094 C 8.402344 6.121094 7.921875 5.636719 7.921875 5.039062 C 7.921875 4.445312 8.402344 3.960938 9 3.960938 C 9.597656 3.960938 10.078125 4.445312 10.078125 5.039062 Z M 10.078125 5.039062 "/>
<path style=" stroke:none;fill-rule:nonzero;fill:rgb(24.705882%,25.098039%,27.45098%);fill-opacity:1;" d="M 7.921875 7.800781 C 7.921875 7.269531 8.402344 6.839844 9 6.839844 C 9.597656 6.839844 10.078125 7.269531 10.078125 7.800781 L 10.078125 13.078125 C 10.078125 13.609375 9.597656 14.039062 9 14.039062 C 8.402344 14.039062 7.921875 13.609375 7.921875 13.078125 Z M 7.921875 7.800781 "/>
</g>
</svg>
